<?xml version="1.0" encoding="UTF-8"?>
<svg id="Layer_1" data-name="Layer 1" xmlns="http://www.w3.org/2000/svg" viewBox="0 0 706.74 946.94">
  <defs>
    <style>
      .cls-1 {
        fill: #231f20;
      }
    </style>
  </defs>
  <path class="cls-1" d="M287.44,496.24l32.35,47.07c.71,1.03.77,2.3.17,3.38l-22.55,40.64c-.54.98-.54,2.12,0,3.1l33.33,53.22c1.31,2.36-6.06,2.28-9.08,2.29l-145.69.71c-2.98.01-8.22.2-7.01-2.16l32.77-60.58c.49-.96.47-2.06-.06-3.01l-46.24-82.54c-.76-1.36-.45-2.99.77-4.07l83.78-74.04c2.01-1.77,1.68-8.2,2.9-5.95l20.29,37.57c.82,1.53.31,3.35-1.24,4.36l-51.25,33.71c-1.46.96-2.01,2.63-1.36,4.12l35.03,80.15c1.22,2.79,5.61,3.12,7.37.55l23.77-34.8c.73-1.07.78-2.37.11-3.47-4.27-7.05-20-33.09-20.01-34.47,0-1.6,34.68-23.66,34.68-25.27,0-1.41-3.53,13.51-3.4,17.78.02.61.22,1.2.58,1.72Z"/>
  <path class="cls-1" d="M419.3,496.24l-32.35,47.07c-.71,1.03-.77,2.3-.17,3.38l22.55,40.64c.54.98.54,2.12,0,3.1l-33.33,53.22c-1.31,2.36,6.06,2.28,9.08,2.29l145.69.71c2.98.01,8.22.2,7.01-2.16l-32.77-60.58c-.49-.96-.47-2.06.06-3.01l46.24-82.54c.76-1.36.45-2.99-.77-4.07l-83.78-74.04c-2.01-1.77-1.68-8.2-2.9-5.95l-20.29,37.57c-.82,1.53-.31,3.35,1.24,4.36l51.25,33.71c1.46.96,2.01,2.63,1.36,4.12l-35.03,80.15c-1.22,2.79-5.61,3.12-7.37.55l-23.77-34.8c-.73-1.07-.78-2.37-.11-3.47,4.27-7.05,20-33.09,20.01-34.47,0-1.6-34.68-23.66-34.68-25.27,0-1.41,3.53,13.51,3.4,17.78-.02.61-.22,1.2-.58,1.72Z"/>
</svg>