<?xml version="1.0" encoding="UTF-8"?>
<svg id="Layer_1" data-name="Layer 1" xmlns="http://www.w3.org/2000/svg" viewBox="0 0 194.01 251.07">
  <defs>
    <style>
      .cls-1 {
        fill: #231f20;
      }
    </style>
  </defs>
  <path class="cls-1" d="M82.5,118.86l6.35,9.24c.14.2.15.45.03.66l-4.43,7.98c-.11.19-.11.42,0,.61l6.55,10.45c.26.46-1.19.45-1.78.45l-28.61.14c-.58,0-1.62.04-1.38-.42l6.44-11.9c.1-.19.09-.41-.01-.59l-9.08-16.21c-.15-.27-.09-.59.15-.8l16.45-14.54c.39-.35.33-1.61.57-1.17l3.98,7.38c.16.3.06.66-.24.86l-10.06,6.62c-.29.19-.39.52-.27.81l6.88,15.74c.24.55,1.1.61,1.45.11l4.67-6.83c.14-.21.15-.47.02-.68-.84-1.38-3.93-6.5-3.93-6.77,0-.31,6.81-4.65,6.81-4.96,0-.28-.69,2.65-.67,3.49,0,.12.04.24.11.34Z"/>
  <path class="cls-1" d="M108.4,118.86l-6.35,9.24c-.14.2-.15.45-.03.66l4.43,7.98c.11.19.11.42,0,.61l-6.55,10.45c-.26.46,1.19.45,1.78.45l28.61.14c.58,0,1.62.04,1.38-.42l-6.44-11.9c-.1-.19-.09-.41.01-.59l9.08-16.21c.15-.27.09-.59-.15-.8l-16.45-14.54c-.39-.35-.33-1.61-.57-1.17l-3.98,7.38c-.16.3-.06.66.24.86l10.06,6.62c.29.19.39.52.27.81l-6.88,15.74c-.24.55-1.1.61-1.45.11l-4.67-6.83c-.14-.21-.15-.47-.02-.68.84-1.38,3.93-6.5,3.93-6.77,0-.31-6.81-4.65-6.81-4.96,0-.28.69,2.65.67,3.49,0,.12-.04.24-.11.34Z"/>
</svg>