<?xml version="1.0" encoding="UTF-8"?>
<svg id="Layer_1" data-name="Layer 1" xmlns="http://www.w3.org/2000/svg" viewBox="0 0 276.77 173.99">
  <defs>
    <style>
      .cls-1 {
        fill: #231f20;
      }
    </style>
  </defs>
  <path class="cls-1" d="M93.35,64.54l22.09,32.14c.48.7.53,1.57.12,2.31l-15.4,27.76c-.37.67-.37,1.45,0,2.12l22.76,36.35c.89,1.61-4.14,1.56-6.2,1.57l-99.5.48c-2.03,0-5.62.14-4.79-1.48l22.38-41.37c.34-.66.32-1.41-.04-2.06L3.2,65.99c-.52-.93-.31-2.04.52-2.78L60.94,12.64c1.37-1.21,1.15-5.6,1.98-4.06l13.85,25.66c.56,1.04.21,2.28-.85,2.98l-35,23.02c-.99.65-1.37,1.8-.93,2.81l23.92,54.74c.83,1.91,3.83,2.13,5.03.37l16.23-23.76c.5-.73.53-1.62.08-2.37-2.92-4.82-13.66-22.6-13.66-23.54,0-1.09,23.69-16.16,23.68-17.26,0-.96-2.41,9.23-2.32,12.14.01.42.15.82.4,1.18Z"/>
  <path class="cls-1" d="M183.41,64.54l-22.09,32.14c-.48.7-.53,1.57-.12,2.31l15.4,27.76c.37.67.37,1.45,0,2.12l-22.76,36.35c-.89,1.61,4.14,1.56,6.2,1.57l99.5.48c2.03,0,5.62.14,4.79-1.48l-22.38-41.37c-.34-.66-.32-1.41.04-2.06l31.58-56.37c.52-.93.31-2.04-.52-2.78l-57.22-50.57c-1.37-1.21-1.15-5.6-1.98-4.06l-13.85,25.66c-.56,1.04-.21,2.28.85,2.98l35,23.02c.99.65,1.37,1.8.93,2.81l-23.92,54.74c-.83,1.91-3.83,2.13-5.03.37l-16.23-23.76c-.5-.73-.53-1.62-.08-2.37,2.92-4.82,13.66-22.6,13.66-23.54,0-1.09-23.69-16.16-23.68-17.26,0-.96,2.41,9.23,2.32,12.14-.01.42-.15.82-.4,1.18Z"/>
</svg>